<?xml version="1.0"?>
<svg xmlns:rdf="http://www.w3.org/1999/02/22-rdf-syntax-ns#" xmlns="http://www.w3.org/2000/svg" xmlns:cc="http://web.resource.org/cc/" xmlns:xlink="http://www.w3.org/1999/xlink" xmlns:dc="http://purl.org/dc/elements/1.1/" id="svg2489" viewBox="0 0 78.462 97.816" version="1.0">
  <defs id="defs2491">
    <linearGradient id="linearGradient4470" y2="238.84" gradientUnits="userSpaceOnUse" x2="220.47" gradientTransform="matrix(.64805 0 0 .64805 84.242 99.24)" y1="238.84" x1="286.3">
      <stop id="stop4179" stop-color="#a00" offset="0"/>
      <stop id="stop4181" stop-color="#a00" stop-opacity="0" offset="1"/>
    </linearGradient>
  </defs>
  <g id="layer1" transform="translate(-62.197 -339.88)">
    <g id="g4185" transform="matrix(.41873 0 0 .41873 1.2039 280.4)">
      <g id="g4137">
        <g id="g4143" fill="#4d4d4d">
          <path id="path3976" d="m333.05 281.97a93.692 93.692 0 1 1 -187.39 0 93.692 93.692 0 1 1 187.39 0z"/>
          <rect id="rect4015" rx="3.5355" ry="3.5355" height="18.467" width="21.545" y="175.17" x="228.58"/>
          <rect id="rect4017" rx="8.9357" ry="8.9357" height="17.871" width="32.625" y="162.84" x="223.04"/>
        </g>
        <rect id="rect4021" stroke-linejoin="round" rx="18.775" ry="11.696" height="24.623" width="48.015" stroke="#4d4d4d" y="145.62" x="216.07" stroke-width="7.1328" fill="none"/>
      </g>
      <path id="path3978" d="m317.49 281.97a78.135 78.135 0 1 1 -156.27 0 78.135 78.135 0 1 1 156.27 0z" fill="#fff"/>
      <rect id="rect3984" rx="3.5355" ry="3.5355" height="18.385" width="9.1924" y="208.96" x="234.76" fill="#4d4d4d"/>
      <use id="use3986" xlink:href="#rect3984" transform="translate(0 125.87)" height="1052.3622" width="744.09448" y="0" x="0"/>
      <use id="use3990" xlink:href="#rect3984" transform="matrix(0 -1 1 0 -42.436 521.32)" height="1052.3622" width="744.09448" y="0" x="0"/>
      <use id="use3992" xlink:href="#rect3984" transform="matrix(0 -1 1 0 81.308 521.32)" height="1052.3622" width="744.09448" y="0" x="0"/>
      <g id="g4285" fill="#808080">
        <use id="use3996" xlink:href="#rect3984" transform="matrix(.25365 .14645 -.21784 .37731 257.75 108.97)" height="1052.3622" width="744.09448" y="0" x="0"/>
        <use id="use3998" xlink:href="#rect3984" transform="matrix(.14645 .25365 -.37731 .21784 340.68 141.55)" height="1052.3622" width="744.09448" y="0" x="0"/>
        <use id="use4002" xlink:href="#rect3984" transform="matrix(.25365 -.14645 -.21784 -.37731 257.75 453.16)" height="1052.3622" width="744.09448" y="0" x="0"/>
        <use id="use4004" xlink:href="#rect3984" transform="matrix(.14645 -.25365 -.37731 -.21784 340.68 420.58)" height="1052.3622" width="744.09448" y="0" x="0"/>
        <use id="use4006" xlink:href="#rect3984" transform="matrix(-.25365 -.14645 .21784 -.37731 221.03 453.16)" height="1052.3622" width="744.09448" y="0" x="0"/>
        <use id="use4008" xlink:href="#rect3984" transform="matrix(-.14645 -.25365 .37731 -.21784 138.11 420.58)" height="1052.3622" width="744.09448" y="0" x="0"/>
        <use id="use4010" xlink:href="#rect3984" transform="matrix(-.25365 .14645 .21784 .37731 221.03 109.4)" height="1052.3622" width="744.09448" y="0" x="0"/>
        <use id="use4012" xlink:href="#rect3984" transform="matrix(-.14645 .25365 .37731 .21784 138.11 141.98)" height="1052.3622" width="744.09448" y="0" x="0"/>
      </g>
      <path id="path4047" d="m239.63 229.68c-1.93 0.01-3.89 0.11-5.87 0.32-0.61 0.02-1.16 0.38-1.42 0.94-0.26 0.55-0.2 1.2 0.18 1.69 0.37 0.49 0.98 0.72 1.58 0.61 14.98-1.61 28.27 2.91 39.15 13.33 0.4 0.47 1.04 0.67 1.64 0.52 0.61-0.16 1.07-0.64 1.2-1.25 0.12-0.61-0.1-1.24-0.59-1.62-10.07-9.64-22.34-14.59-35.87-14.54z" fill="url(#linearGradient4470)"/>
      <path id="path4049" d="m244.39 239.3c-0.81 0.12-1.41 0.82-1.4 1.65 0.02 0.82 0.64 1.5 1.46 1.59 8.33 1.08 15 4.13 21.29 9.7 0.67 0.6 1.71 0.53 2.3-0.14 0.6-0.68 0.54-1.71-0.14-2.31-6.71-5.95-14.13-9.34-23.02-10.49-0.16-0.03-0.33-0.03-0.49 0z" fill="url(#linearGradient4470)"/>
      <path id="path4051" d="m238.32 220.83c-5.42 0.15-10.93 1.04-16.41 2.67-0.59 0.14-1.05 0.6-1.2 1.19s0.04 1.21 0.49 1.62c0.45 0.4 1.09 0.52 1.66 0.31 20.87-6.22 41.63-1.02 57.11 14.3 0.65 0.64 1.68 0.63 2.32-0.01s0.63-1.68-0.01-2.32c-12.2-12.07-27.72-18.2-43.96-17.76z" fill="url(#linearGradient4470)"/>
      <path id="path4158" fill-rule="evenodd" fill="#4d4d4d" d="m294.16 196.88l-3.19 12.61 12.38 9.55 11.94-6.98c0-6.19-15.83-16.94-21.13-15.18z"/>
      <path id="path4782" d="m294.03 237.32c-1.1-1.26-67.81 52.86-67.81 52.86l2.54 3.18s66.36-54.79 65.27-56.04z" fill="#1a1a1a" fill-rule="evenodd"/>
    </g>
  </g>
  <metadata>
    <rdf:RDF>
      <cc:Work>
        <dc:format>image/svg+xml</dc:format>
        <dc:type rdf:resource="http://purl.org/dc/dcmitype/StillImage"/>
        <cc:license rdf:resource="http://creativecommons.org/licenses/publicdomain/"/>
        <dc:publisher>
          <cc:Agent rdf:about="http://openclipart.org/">
            <dc:title>Openclipart</dc:title>
          </cc:Agent>
        </dc:publisher>
      </cc:Work>
      <cc:License rdf:about="http://creativecommons.org/licenses/publicdomain/">
        <cc:permits rdf:resource="http://creativecommons.org/ns#Reproduction"/>
        <cc:permits rdf:resource="http://creativecommons.org/ns#Distribution"/>
        <cc:permits rdf:resource="http://creativecommons.org/ns#DerivativeWorks"/>
      </cc:License>
    </rdf:RDF>
  </metadata>
</svg>
