<?xml version="1.0"?>
<svg xmlns:rdf="http://www.w3.org/1999/02/22-rdf-syntax-ns#" xmlns="http://www.w3.org/2000/svg" xmlns:cc="http://creativecommons.org/ns#" xmlns:xlink="http://www.w3.org/1999/xlink" xmlns:dc="http://purl.org/dc/elements/1.1/" id="svg4199" viewBox="0 0 655.71 847.14" version="1.1">
  <defs id="defs3">
    <linearGradient id="linearGradient5054">
      <stop id="stop5056" stop-color="#6c9d2a" offset="0"/>
      <stop id="stop5058" stop-color="#a7c925" offset="1"/>
    </linearGradient>
    <linearGradient id="linearGradient4719">
      <stop id="stop4721" stop-color="#333" offset="0"/>
      <stop id="stop4723" stop-color="#666" offset="1"/>
    </linearGradient>
    <style id="style6" type="text/css">.str0 {stroke:#1F1A17;stroke-width:0.0762}
    .fil9 {fill:none}
    .fil3 {fill:#007CC3}
    .fil1 {fill:#00923F}
    .fil5 {fill:#0093DD}
    .fil0 {fill:#1F1A17}
    .fil7 {fill:#DA251D}
    .fil2 {fill:#E77817}
    .fil4 {fill:#FFF500}
    .fil6 {fill:white}
    .fil8 {fill:#141516}</style>
    <clipPath id="clipPath5121" clipPathUnits="userSpaceOnUse">
      <rect id="rect5123" rx="67.287" ry="63.708" height="598.57" width="547.14" y="146.65" x="-237.14" fill="url(#linearGradient5125)"/>
    </clipPath>
    <linearGradient id="linearGradient5125" x1="12.857" gradientUnits="userSpaceOnUse" x2="36.429" y1="205.22" y2="745.22">
      <stop id="stop5044" stop-color="#2ba8d3" offset="0"/>
      <stop id="stop5046" stop-color="#7ac4dd" offset="1"/>
    </linearGradient>
    <linearGradient id="linearGradient5264" x1="-7.1429" xlink:href="#linearGradient4719" gradientUnits="userSpaceOnUse" x2="36.429" y1="902.36" y2="88.076"/>
    <linearGradient id="linearGradient5266" y2="763.79" gradientUnits="userSpaceOnUse" y1="133.79" x2="36.429" x1="41.429">
      <stop id="stop4733" stop-color="#333" offset="0"/>
      <stop id="stop4735" stop-color="#cccccf" offset="1"/>
    </linearGradient>
    <linearGradient id="linearGradient5268" x1="41.429" xlink:href="#linearGradient4719" gradientUnits="userSpaceOnUse" y1="133.79" gradientTransform="matrix(.93643 0 0 .94183 2.3158 25.855)" x2="36.429" y2="763.79"/>
    <linearGradient id="linearGradient5274" x1="-64.286" xlink:href="#linearGradient5054" gradientUnits="userSpaceOnUse" y1="136.65" gradientTransform="matrix(1.0154 0 0 1.0512 747.72 9.9705)" x2="-7.1429" y2="720.93"/>
    <linearGradient id="linearGradient5276" x1="-64.286" xlink:href="#linearGradient5054" gradientUnits="userSpaceOnUse" y1="179.57" gradientTransform="matrix(1.0154 0 0 1.0512 747.72 9.9705)" x2="-7.1429" y2="720.93"/>
    <linearGradient id="linearGradient5278" y2="806.58" gradientUnits="userSpaceOnUse" y1="161.86" x2="36.429" x1="-1.1873">
      <stop id="stop5135" stop-color="#eee" offset="0"/>
      <stop id="stop5137" stop-color="#eee" stop-opacity="0" offset="1"/>
    </linearGradient>
    <linearGradient id="linearGradient5280" x1="-250.49" xlink:href="#linearGradient4719" gradientUnits="userSpaceOnUse" x2="-138.96" y1="860.01" y2="860.01"/>
    <linearGradient id="linearGradient5282" y2="908.69" gradientUnits="userSpaceOnUse" y1="822.69" x2="-194.72" x1="-193.1">
      <stop id="stop5158" stop-color="#fd3301" offset="0"/>
      <stop id="stop5160" stop-color="#d40000" offset="1"/>
    </linearGradient>
    <linearGradient id="linearGradient5284" x1="-127.05" xlink:href="#linearGradient4719" gradientUnits="userSpaceOnUse" x2="173.35" y1="864.76" y2="864.76"/>
    <linearGradient id="linearGradient5286" x1="-127.05" xlink:href="#linearGradient4719" gradientUnits="userSpaceOnUse" x2="173.35" y1="896.82" y2="896.82"/>
  </defs>
  <g id="layer1" transform="translate(-36.277 -99.95)">
    <g id="g5221" transform="translate(327.71 11.873)">
      <rect id="rect4717" rx="67.287" ry="63.708" height="847.14" width="655.71" y="88.076" x="-291.43" fill="url(#linearGradient5264)"/>
      <rect id="rect4727" rx="67.287" ry="63.708" height="638.57" width="584.29" y="125.22" x="-255.71" fill="url(#linearGradient5266)"/>
      <rect id="rect4739" rx="67.287" ry="63.708" height="601.43" width="547.14" y="143.79" x="-237.14" fill="url(#linearGradient5268)"/>
      <rect id="rect4745" rx="67.287" ry="63.708" height="598.57" width="547.14" y="146.65" x="-237.14" fill="url(#linearGradient5125)"/>
      <rect id="rect5066" rx="67.287" ry="63.708" height="598.57" width="547.14" y="146.65" x="-237.14" fill="url(#linearGradient5125)"/>
      <g id="g5109" clip-path="url(#clipPath5121)" transform="matrix(-1 0 0 1 72.857 0)">
        <g id="g5091" stroke-linejoin="round" transform="matrix(1.0433 0 0 1.0206 -773.03 -50.594)">
          <path id="path5050" d="m517.08 465.96 233.54 330.37 149.41 3.0033s78.33-52.558 43.516-97.608c-34.813-45.05-62.374-27.03-50.769-93.103 11.604-66.073 46.418-97.608 65.275-133.65 18.857-36.04-94.286-133.65-130.55-114.13-36.264 19.522-88.484 25.528-88.484 25.528s78.33-106.62 110.24-108.12c31.912-1.5017 100.09 63.07 100.09 63.07l117.49 73.581 1.4506-222.25s-159.56-39.043-240.79-39.043c-81.231 0-253.85 6.0066-253.85 6.0066l-62.374 22.525-8.7033 180.2 1.4506 115.63 13.055-12.013z" clip-path="none" stroke="#cce4fe" stroke-width="42.52" fill="url(#linearGradient5274)"/>
          <path id="path5085" d="m517.08 465.96 233.54 330.37 149.41 3.0033s78.33-52.558 43.516-97.608c-34.813-45.05-62.374-27.03-50.769-93.103 11.604-66.073 46.418-97.608 65.275-133.65 18.857-36.04-94.286-133.65-130.55-114.13-36.264 19.522-88.484 25.528-88.484 25.528s78.33-106.62 110.24-108.12c31.912-1.5017 100.09 63.07 100.09 63.07l117.49 73.581 1.4506-222.25s-159.56-39.043-240.79-39.043c-81.231 0-253.85 6.0066-253.85 6.0066l-62.374 22.525-8.7033 180.2 1.4506 115.63 13.055-12.013z" clip-path="none" stroke="#47651b" stroke-width="14.173" fill="url(#linearGradient5276)"/>
        </g>
        <path id="path5072" d="m-245.76 266.01 544.29-1.43" stroke="#426516" stroke-dasharray="56.69291339, 14.17322835" stroke-width="14.173" fill="#015a01"/>
        <path id="path5101" d="m-240.7 487.64 559.36-1.4" stroke="#426516" stroke-dasharray="56.82168107, 14.20542027" stroke-width="14.205" fill="#015a01"/>
        <path id="path5103" d="m-239.03 648.84 557.69-1.3999" stroke="#426516" stroke-dasharray="56.80766258, 14.20191565" stroke-width="14.202" fill="#015a01"/>
        <path id="path5105" d="m-103.55 130.92 1.2781 621.38" stroke="#426516" stroke-dasharray="57.29497875, 14.32374469" stroke-width="14.324" fill="#015a01"/>
        <path id="path5107" d="m150 134.27 1.2929 613" stroke="#426516" stroke-dasharray="57.23578537, 14.30894635" stroke-width="14.309" fill="#015a01"/>
      </g>
      <path id="rect5131" opacity=".63556" fill="url(#linearGradient5278)" d="m-169.84 146.66c-37.277 0-67.312 28.394-67.312 63.688v88.062l444.78 446.81h35.094c37.28 0 67.28-28.43 67.28-63.72v-471.16c0-35.294-30.004-63.688-67.281-63.688h-412.56z"/>
      <path id="path5148" opacity=".63556" transform="translate(448.81 -23.747)" fill="url(#linearGradient5280)" d="m-146.04 860.01c0 26.886-21.795 48.681-48.681 48.681s-48.681-21.795-48.681-48.681 21.795-48.681 48.681-48.681 48.681 21.795 48.681 48.681z"/>
      <path id="path5152" opacity=".63556" transform="matrix(.73171 0 0 .73171 396.57 206.99)" fill="url(#linearGradient5282)" d="m-146.04 860.01c0 26.886-21.795 48.681-48.681 48.681s-48.681-21.795-48.681-48.681 21.795-48.681 48.681-48.681 48.681 21.795 48.681 48.681z"/>
      <g id="text5164" transform="scale(1.0231 .97743)" fill="#666">
        <path id="path5169" d="m-111.16 812.69 16.465 24.914v-25.144c-0.000032-1.634 0.34599-2.8546 1.0381-3.6621 0.71124-0.82657 1.6628-1.2399 2.8547-1.2399 1.2303 0.00004 2.2011 0.41335 2.9124 1.2399 0.71123 0.80742 1.0669 2.0281 1.0669 3.6621v33.247c-0.00004 3.7101-1.5379 5.5652-4.6136 5.5652-0.76898 0-1.461-0.11534-2.0761-0.34602-0.61518-0.21146-1.1919-0.55748-1.7301-1.0381-0.53829-0.48058-1.0381-1.0381-1.4994-1.6724-0.46139-0.6536-0.92276-1.3168-1.3841-1.9896l-16.061-24.625v24.769c-0.00002 1.6148-0.37488 2.8355-1.1246 3.6621-0.74973 0.82661-1.7109 1.2399-2.8835 1.2399-1.2111 0-2.1819-0.4133-2.9124-1.2399-0.7305-0.84583-1.0958-2.0665-1.0957-3.6621v-32.613c-0.00001-1.384 0.15378-2.4702 0.46136-3.2584 0.36524-0.86502 0.97078-1.5667 1.8166-2.105 0.84583-0.55744 1.7589-0.83618 2.7394-0.83622 0.76893 0.00004 1.4225 0.125 1.9608 0.37486 0.55747 0.24995 1.038 0.58636 1.4418 1.0092 0.4229 0.42296 0.84582 0.97083 1.2688 1.6436 0.44213 0.67286 0.89388 1.3745 1.3553 2.105"/>
        <path id="path5171" d="m-58.107 846.84c-1.9031 1.4802-3.7486 2.5952-5.5364 3.3449-1.7686 0.7305-3.7582 1.0957-5.9689 1.0957-2.0185 0-3.7966-0.39408-5.3345-1.1822-1.5187-0.80739-2.6913-1.8935-3.5179-3.2584-0.82661-1.3649-1.2399-2.8451-1.2399-4.4406-0.000002-2.153 0.68243-3.9889 2.0473-5.5075s3.2392-2.5375 5.6229-3.0565c0.4998-0.11532 1.7397-0.37484 3.7197-0.77855 1.98-0.40368 3.6717-0.76892 5.075-1.0957 1.4225-0.346 2.9604-0.75931 4.6136-1.2399-0.09614-2.0761-0.51906-3.5948-1.2688-4.556-0.73051-0.98037-2.2588-1.4706-4.5848-1.4706-1.9993 0.00002-3.5083 0.27876-4.5271 0.83622-0.99963 0.55751-1.8647 1.3937-2.5952 2.5087-0.71128 1.115-1.2207 1.8551-1.5283 2.2203-0.28836 0.34604-0.92274 0.51905-1.9031 0.51903-0.88429 0.00002-1.6532-0.27872-2.3068-0.83622-0.63438-0.57668-0.95157-1.3072-0.95156-2.1915-0.000003-1.3841 0.4902-2.7297 1.4706-4.0369 0.98039-1.3072 2.5087-2.3837 4.5848-3.2296 2.0761-0.8458 4.6617-1.2687 7.7567-1.2688 3.4602 0.00003 6.1803 0.41334 8.1604 1.2399 1.98 0.80741 3.3737 2.0954 4.1811 3.8639 0.82658 1.7686 1.2399 4.1138 1.2399 7.0358-0.000031 1.8455-0.0096 3.4122-0.02884 4.7001-0.000031 1.288-0.0096 2.7201-0.02884 4.2965-0.000031 1.4802 0.24026 3.0277 0.72088 4.6425 0.49978 1.5956 0.74968 2.624 0.74972 3.0854-0.000032 0.80739-0.3845 1.5475-1.1534 2.2203-0.74975 0.65359-1.6052 0.98039-2.5663 0.98039-0.80742 0-1.6052-0.37485-2.3933-1.1246-0.78819-0.76894-1.6244-1.8743-2.5087-3.316m-0.51904-11.39c-1.1534 0.42294-2.8355 0.87469-5.0462 1.3553-2.1915 0.46138-3.7102 0.8074-4.556 1.0381-0.84585 0.21147-1.6532 0.644-2.4222 1.2976-0.76895 0.63438-1.1534 1.5283-1.1534 2.6817-0.000011 1.1919 0.45174 2.2107 1.3553 3.0565 0.90349 0.82661 2.0857 1.2399 3.5467 1.2399 1.5571 0 2.9892-0.33641 4.2965-1.0092 1.3264-0.69204 2.2972-1.5763 2.9124-2.6528 0.71125-1.1918 1.0669-3.1526 1.0669-5.8824v-1.1246"/>
        <path id="path5173" d="m-38.874 824.17 6.3726 17.878 6.8628-18.656c0.53824-1.4994 1.0669-2.5567 1.5859-3.1719 0.51901-0.63434 1.3072-0.95153 2.3645-0.95156 0.99959 0.00003 1.8454 0.33644 2.5375 1.0092 0.71124 0.67286 1.0669 1.4514 1.0669 2.3357-0.00003 0.34605-0.06731 0.74974-0.20185 1.2111-0.11537 0.46139-0.25955 0.89392-0.43253 1.2976-0.15382 0.40371-0.33644 0.86508-0.54787 1.3841l-7.5548 18.743c-0.21148 0.53826-0.49022 1.2207-0.83622 2.0473-0.32682 0.82661-0.70168 1.5379-1.1246 2.1338-0.40371 0.5767-0.91314 1.0285-1.5283 1.3552-0.59595 0.3268-1.3264 0.4902-2.1915 0.4902-1.115 0-2.0089-0.2499-2.6817-0.74971-0.65361-0.51904-1.1438-1.0765-1.4706-1.6724-0.30759-0.61515-0.83623-1.8166-1.5859-3.6044l-7.4972-18.541c-0.17301-0.46134-0.35564-0.9227-0.54787-1.3841-0.17301-0.46134-0.3268-0.93231-0.46136-1.4129-0.11534-0.48056-0.17301-0.89387-0.17301-1.2399-0.000002-0.53823 0.1634-1.0669 0.4902-1.5859 0.3268-0.53823 0.77855-0.97075 1.3553-1.2976 0.5767-0.346 1.2015-0.51901 1.8743-0.51904 1.3072 0.00003 2.2011 0.37489 2.6817 1.1246 0.4998 0.74974 1.0477 2.0089 1.6436 3.7774"/>
        <path id="path5175" d="m-4.5021 823.74v22.751c-0.000012 1.5763-0.37487 2.7682-1.1246 3.5756-0.74973 0.80739-1.7013 1.2111-2.8547 1.2111s-2.0954-0.4133-2.8259-1.2399c-0.71127-0.82661-1.0669-2.0088-1.0669-3.5467v-22.52c-0.000004-1.5571 0.35563-2.7297 1.0669-3.5179 0.73049-0.78814 1.6724-1.1822 2.8259-1.1822 1.1534 0.00003 2.105 0.39411 2.8547 1.1822 0.7497 0.78819 1.1246 1.8839 1.1246 3.2872m-3.8928-8.1315c-1.0957 0.00004-2.0377-0.33637-2.8259-1.0092-0.76894-0.67278-1.1534-1.6244-1.1534-2.8547-0.000004-1.1149 0.39408-2.028 1.1822-2.7394 0.80738-0.73045 1.7397-1.0957 2.797-1.0957 1.0188 0.00005 1.9223 0.32685 2.7105 0.9804 0.78815 0.65364 1.1822 1.6052 1.1822 2.8547-0.000012 1.2111-0.38448 2.1627-1.1534 2.8547-0.76895 0.67286-1.6821 1.0093-2.7393 1.0092"/>
        <path id="path5177" d="m32.609 825.04v22.866c-0.000033 2.6144-0.27877 4.8635-0.83622 6.7474-0.55751 1.8839-1.4514 3.441-2.6817 4.6713s-2.8451 2.1434-4.8443 2.7394c-1.98 0.59591-4.4503 0.89388-7.4107 0.89389-2.7105-0.00001-5.1327-0.38448-7.2665-1.1534-2.1338-0.74973-3.7774-1.7301-4.9308-2.9412-1.1534-1.1919-1.7301-2.4222-1.7301-3.6909-0.0000034-0.96118 0.3268-1.7493 0.9804-2.3645 0.65359-0.59593 1.4418-0.89389 2.3645-0.89389 1.1534 0 2.1626 0.50942 3.0277 1.5283 0.42291 0.51903 0.85544 1.0381 1.2976 1.5571 0.46135 0.53825 0.96116 0.99001 1.4994 1.3553 0.55747 0.38446 1.2207 0.6632 1.9896 0.83622 0.76892 0.19223 1.6532 0.28835 2.6528 0.28835 2.0377 0 3.614-0.28836 4.729-0.86506 1.1342-0.55748 1.9223-1.3456 2.3645-2.3645 0.46134-1.0188 0.73047-2.1146 0.80739-3.2872 0.07687-1.1534 0.13454-3.0181 0.17301-5.594-1.2111 1.6917-2.6144 2.9796-4.2099 3.8639-1.5763 0.88428-3.4602 1.3264-5.6517 1.3264-2.6336 0-4.9404-0.67282-6.9205-2.0185-1.9608-1.3456-3.4698-3.2296-4.5271-5.6517-1.0573-2.4222-1.5859-5.2192-1.5859-8.3911-0.0000023-2.3645 0.31719-4.4983 0.95156-6.4014 0.6536-1.9031 1.5763-3.5083 2.7682-4.8155 1.1918-1.3072 2.5663-2.2876 4.1234-2.9412 1.5571-0.67279 3.268-1.0092 5.1327-1.0092 2.2299 0.00003 4.1619 0.43256 5.7959 1.2976 1.634 0.84586 3.1526 2.1819 4.556 4.0081v-1.0669c-0.000026-1.3648 0.33638-2.4221 1.0092-3.1719 0.6728-0.74969 1.5379-1.1246 2.5952-1.1246 1.5186 0.00003 2.5279 0.49984 3.0277 1.4994 0.49978 0.98043 0.74968 2.403 0.74972 4.2676m-22.809 9.977c-0.0000102 3.1911 0.69203 5.6036 2.0761 7.2376 1.4033 1.634 3.2103 2.451 5.421 2.451 1.3072 0 2.5375-0.34602 3.6909-1.0381 1.1726-0.71126 2.1242-1.7686 2.8547-3.1719 0.73047-1.4225 1.0957-3.143 1.0957-5.1615-0.000025-3.2103-0.71129-5.7094-2.1338-7.4972-1.4033-1.7878-3.2584-2.6816-5.5652-2.6817-2.2492 0.00003-4.0562 0.85547-5.421 2.5663-1.3457 1.7109-2.0185 4.1427-2.0185 7.2953"/>
        <path id="path5179" d="m58.964 846.84c-1.9031 1.4802-3.7486 2.5952-5.5364 3.3449-1.7686 0.7305-3.7582 1.0957-5.9689 1.0957-2.0185 0-3.7966-0.39408-5.3345-1.1822-1.5187-0.80739-2.6913-1.8935-3.5179-3.2584-0.82661-1.3649-1.2399-2.8451-1.2399-4.4406-0.000003-2.153 0.68243-3.9889 2.0473-5.5075s3.2392-2.5375 5.6229-3.0565c0.4998-0.11532 1.7397-0.37484 3.7197-0.77855 1.98-0.40368 3.6717-0.76892 5.075-1.0957 1.4225-0.346 2.9604-0.75931 4.6136-1.2399-0.09614-2.0761-0.51906-3.5948-1.2688-4.556-0.73051-0.98037-2.2588-1.4706-4.5848-1.4706-1.9993 0.00002-3.5083 0.27876-4.5271 0.83622-0.99963 0.55751-1.8647 1.3937-2.5952 2.5087-0.71128 1.115-1.2207 1.8551-1.5283 2.2203-0.28836 0.34604-0.92274 0.51905-1.9031 0.51903-0.88429 0.00002-1.6532-0.27872-2.3068-0.83622-0.63438-0.57668-0.95157-1.3072-0.95156-2.1915-0.000004-1.3841 0.4902-2.7297 1.4706-4.0369 0.98039-1.3072 2.5087-2.3837 4.5848-3.2296 2.0761-0.8458 4.6617-1.2687 7.7567-1.2688 3.4602 0.00003 6.1803 0.41334 8.1604 1.2399 1.98 0.80741 3.3737 2.0954 4.1811 3.8639 0.82658 1.7686 1.2399 4.1138 1.2399 7.0358-0.000031 1.8455-0.0096 3.4122-0.02884 4.7001-0.000032 1.288-0.0096 2.7201-0.02884 4.2965-0.000031 1.4802 0.24026 3.0277 0.72088 4.6425 0.49978 1.5956 0.74968 2.624 0.74972 3.0854-0.000033 0.80739-0.3845 1.5475-1.1534 2.2203-0.74975 0.65359-1.6052 0.98039-2.5663 0.98039-0.80742 0-1.6052-0.37485-2.3933-1.1246-0.78819-0.76894-1.6244-1.8743-2.5087-3.316m-0.51903-11.39c-1.1534 0.42294-2.8355 0.87469-5.0462 1.3553-2.1915 0.46138-3.7102 0.8074-4.556 1.0381-0.84585 0.21147-1.6532 0.644-2.4222 1.2976-0.76895 0.63438-1.1534 1.5283-1.1534 2.6817-0.00001 1.1919 0.45174 2.2107 1.3553 3.0565 0.90349 0.82661 2.0857 1.2399 3.5467 1.2399 1.5571 0 2.9892-0.33641 4.2965-1.0092 1.3264-0.69204 2.2972-1.5763 2.9124-2.6528 0.71125-1.1918 1.0669-3.1526 1.0669-5.8824v-1.1246"/>
        <path id="path5181" d="m73.065 819.96h0.86506v-4.729c-0.000006-1.2687 0.02883-2.2587 0.08651-2.97 0.07689-0.73046 0.26912-1.3552 0.5767-1.8743 0.30757-0.53821 0.74971-0.97074 1.3264-1.2976 0.5767-0.34598 1.2207-0.51899 1.932-0.51904 0.99961 0.00005 1.9031 0.3749 2.7105 1.1246 0.53824 0.49985 0.87466 1.115 1.0092 1.8454 0.15378 0.71131 0.23067 1.7302 0.23068 3.0565v5.3634h2.8835c1.1149 0.00003 1.9608 0.26916 2.5375 0.80738 0.59591 0.51907 0.89387 1.1919 0.89389 2.0185-0.00002 1.0573-0.42294 1.7974-1.2688 2.2203-0.82663 0.42295-2.0185 0.63441-3.5756 0.63438h-1.4706v14.475c-0.000013 1.2303 0.03843 2.1819 0.11534 2.8547 0.0961 0.65361 0.32679 1.1919 0.69205 1.6148 0.38446 0.4037 0.99961 0.60554 1.8455 0.60554 0.46135 0 1.0861-0.0769 1.8743-0.23068 0.78814-0.17301 1.4033-0.25952 1.8455-0.25952 0.63436 0 1.2014 0.25952 1.7013 0.77855 0.51901 0.49982 0.77853 1.1246 0.77855 1.8743-0.000022 1.2688-0.69207 2.2395-2.0761 2.9124-1.3841 0.67282-3.3737 1.0092-5.9689 1.0092-2.4606 0-4.3253-0.4133-5.594-1.2399-1.2688-0.82661-2.105-1.9704-2.5087-3.4314-0.38448-1.461-0.57671-3.4122-0.5767-5.8536v-15.11h-1.0381c-1.1342 0.00003-1.9992-0.2691-2.5952-0.80739-0.59593-0.53823-0.89389-1.2207-0.89389-2.0473-0.000001-0.82658 0.30758-1.4994 0.92273-2.0185 0.63437-0.53822 1.5475-0.80735 2.7393-0.80738"/>
        <path id="path5183" d="m101.38 823.74v22.751c-0.00001 1.5763-0.37487 2.7682-1.1246 3.5756-0.74973 0.80739-1.7013 1.2111-2.8547 1.2111s-2.0954-0.4133-2.8259-1.2399c-0.71127-0.82661-1.0669-2.0088-1.0669-3.5467v-22.52c-0.000004-1.5571 0.35563-2.7297 1.0669-3.5179 0.73049-0.78814 1.6724-1.1822 2.8259-1.1822 1.1534 0.00003 2.105 0.39411 2.8547 1.1822 0.7497 0.78819 1.1246 1.8839 1.1246 3.2872m-3.8928-8.1315c-1.0957 0.00004-2.0377-0.33637-2.8259-1.0092-0.76894-0.67278-1.1534-1.6244-1.1534-2.8547-0.000004-1.1149 0.39408-2.028 1.1822-2.7394 0.80738-0.73045 1.7397-1.0957 2.797-1.0957 1.0188 0.00005 1.9223 0.32685 2.7105 0.9804 0.78815 0.65364 1.1822 1.6052 1.1822 2.8547-0.00001 1.2111-0.38448 2.1627-1.1534 2.8547-0.76895 0.67286-1.6821 1.0093-2.7393 1.0092"/>
        <path id="path5185" d="m139.01 835.27c-0.00004 2.3453-0.36528 4.5079-1.0957 6.4879-0.73053 1.98-1.7878 3.6813-3.1719 5.1038s-3.0373 2.5183-4.9597 3.2872c-1.9224 0.74972-4.085 1.1246-6.4879 1.1246-2.3837 0-4.5272-0.38447-6.4303-1.1534s-3.5564-1.8647-4.9597-3.2872c-1.3841-1.4418-2.4414-3.1334-3.1719-5.075-0.71127-1.9608-1.0669-4.1234-1.0669-6.4879 0-2.3837 0.36525-4.5656 1.0957-6.5456 0.73049-1.98 1.7782-3.6717 3.143-5.075 1.3649-1.4033 3.0181-2.4798 4.9597-3.2296 1.9416-0.76891 4.085-1.1534 6.4303-1.1534 2.3837 0.00003 4.5463 0.3845 6.4879 1.1534 1.9416 0.76897 3.6044 1.8647 4.9885 3.2872 1.3841 1.4226 2.4317 3.1142 3.143 5.075 0.73046 1.9608 1.0957 4.1235 1.0957 6.4879m-7.9009 0c-0.00003-3.2103-0.71129-5.7094-2.1338-7.4972-1.4033-1.7878-3.2968-2.6816-5.6805-2.6817-1.5379 0.00003-2.8932 0.40372-4.0658 1.2111-1.1726 0.78819-2.0762 1.9608-2.7105 3.5179-0.63438 1.5571-0.95157 3.3737-0.95156 5.4499-0.00001 2.0569 0.30757 3.8543 0.92273 5.3922 0.63436 1.5379 1.5283 2.7201 2.6817 3.5467 1.1726 0.80739 2.5471 1.2111 4.1234 1.2111 2.3837 0 4.2772-0.89389 5.6805-2.6817 1.4225-1.807 2.1338-4.2964 2.1338-7.4683"/>
        <path id="path5187" d="m152.45 823.62v0.95157c1.3841-1.8262 2.8931-3.1622 4.5271-4.0081 1.6532-0.86503 3.5467-1.2976 5.6805-1.2976 2.0761 0.00003 3.9312 0.45178 5.5652 1.3553 1.634 0.90353 2.8547 2.1819 3.6621 3.8351 0.519 0.9612 0.85541 1.9993 1.0092 3.1142 0.15376 1.115 0.23065 2.5375 0.23068 4.2676v14.648c-0.00003 1.5763-0.36527 2.7682-1.0957 3.5756-0.7113 0.80739-1.6436 1.2111-2.797 1.2111-1.1727 0-2.1242-0.4133-2.8547-1.2399-0.73052-0.82661-1.0958-2.0088-1.0957-3.5467v-13.12c-0.00003-2.5952-0.36527-4.5752-1.0957-5.9401-0.71129-1.3841-2.1434-2.0761-4.2964-2.0761-1.4033 0.00002-2.6817 0.42294-3.8351 1.2688-1.1534 0.82663-1.9993 1.9704-2.5375 3.4314-0.38448 1.1727-0.57672 3.3641-0.57671 6.5744v9.8616c-0.00001 1.5956-0.37487 2.797-1.1246 3.6044-0.73051 0.78816-1.6821 1.1822-2.8547 1.1822-1.1342 0-2.0665-0.4133-2.797-1.2399-0.7305-0.82661-1.0957-2.0088-1.0957-3.5467v-22.751c0-1.4994 0.3268-2.6144 0.9804-3.3449 0.65359-0.74969 1.5475-1.1246 2.6817-1.1246 0.69203 0.00003 1.3168 0.16343 1.8743 0.4902 0.55747 0.32683 0.99961 0.81703 1.3264 1.4706 0.34601 0.65363 0.51902 1.4514 0.51903 2.3933"/>
      </g>
      <g id="g5189" transform="matrix(1.0231 0 0 .97743 0 2)" fill="#eee">
        <path id="path5191" d="m-111.16 812.69 16.465 24.914v-25.144c-0.000032-1.634 0.34599-2.8546 1.0381-3.6621 0.71124-0.82657 1.6628-1.2399 2.8547-1.2399 1.2303 0.00004 2.2011 0.41335 2.9124 1.2399 0.71123 0.80742 1.0669 2.0281 1.0669 3.6621v33.247c-0.00004 3.7101-1.5379 5.5652-4.6136 5.5652-0.76898 0-1.461-0.11534-2.0761-0.34602-0.61518-0.21146-1.1919-0.55748-1.7301-1.0381-0.53829-0.48058-1.0381-1.0381-1.4994-1.6724-0.46139-0.6536-0.92276-1.3168-1.3841-1.9896l-16.061-24.625v24.769c-0.00002 1.6148-0.37488 2.8355-1.1246 3.6621-0.74973 0.82661-1.7109 1.2399-2.8835 1.2399-1.2111 0-2.1819-0.4133-2.9124-1.2399-0.7305-0.84583-1.0958-2.0665-1.0957-3.6621v-32.613c-0.00001-1.384 0.15378-2.4702 0.46136-3.2584 0.36524-0.86502 0.97078-1.5667 1.8166-2.105 0.84583-0.55744 1.7589-0.83618 2.7394-0.83622 0.76893 0.00004 1.4225 0.125 1.9608 0.37486 0.55747 0.24995 1.038 0.58636 1.4418 1.0092 0.4229 0.42296 0.84582 0.97083 1.2688 1.6436 0.44213 0.67286 0.89388 1.3745 1.3553 2.105"/>
        <path id="path5193" d="m-58.107 846.84c-1.9031 1.4802-3.7486 2.5952-5.5364 3.3449-1.7686 0.7305-3.7582 1.0957-5.9689 1.0957-2.0185 0-3.7966-0.39408-5.3345-1.1822-1.5187-0.80739-2.6913-1.8935-3.5179-3.2584-0.82661-1.3649-1.2399-2.8451-1.2399-4.4406-0.000002-2.153 0.68243-3.9889 2.0473-5.5075s3.2392-2.5375 5.6229-3.0565c0.4998-0.11532 1.7397-0.37484 3.7197-0.77855 1.98-0.40368 3.6717-0.76892 5.075-1.0957 1.4225-0.346 2.9604-0.75931 4.6136-1.2399-0.09614-2.0761-0.51906-3.5948-1.2688-4.556-0.73051-0.98037-2.2588-1.4706-4.5848-1.4706-1.9993 0.00002-3.5083 0.27876-4.5271 0.83622-0.99963 0.55751-1.8647 1.3937-2.5952 2.5087-0.71128 1.115-1.2207 1.8551-1.5283 2.2203-0.28836 0.34604-0.92274 0.51905-1.9031 0.51903-0.88429 0.00002-1.6532-0.27872-2.3068-0.83622-0.63438-0.57668-0.95157-1.3072-0.95156-2.1915-0.000003-1.3841 0.4902-2.7297 1.4706-4.0369 0.98039-1.3072 2.5087-2.3837 4.5848-3.2296 2.0761-0.8458 4.6617-1.2687 7.7567-1.2688 3.4602 0.00003 6.1803 0.41334 8.1604 1.2399 1.98 0.80741 3.3737 2.0954 4.1811 3.8639 0.82658 1.7686 1.2399 4.1138 1.2399 7.0358-0.000031 1.8455-0.0096 3.4122-0.02884 4.7001-0.000031 1.288-0.0096 2.7201-0.02884 4.2965-0.000031 1.4802 0.24026 3.0277 0.72088 4.6425 0.49978 1.5956 0.74968 2.624 0.74972 3.0854-0.000032 0.80739-0.3845 1.5475-1.1534 2.2203-0.74975 0.65359-1.6052 0.98039-2.5663 0.98039-0.80742 0-1.6052-0.37485-2.3933-1.1246-0.78819-0.76894-1.6244-1.8743-2.5087-3.316m-0.51904-11.39c-1.1534 0.42294-2.8355 0.87469-5.0462 1.3553-2.1915 0.46138-3.7102 0.8074-4.556 1.0381-0.84585 0.21147-1.6532 0.644-2.4222 1.2976-0.76895 0.63438-1.1534 1.5283-1.1534 2.6817-0.000011 1.1919 0.45174 2.2107 1.3553 3.0565 0.90349 0.82661 2.0857 1.2399 3.5467 1.2399 1.5571 0 2.9892-0.33641 4.2965-1.0092 1.3264-0.69204 2.2972-1.5763 2.9124-2.6528 0.71125-1.1918 1.0669-3.1526 1.0669-5.8824v-1.1246"/>
        <path id="path5195" d="m-38.874 824.17 6.3726 17.878 6.8628-18.656c0.53824-1.4994 1.0669-2.5567 1.5859-3.1719 0.51901-0.63434 1.3072-0.95153 2.3645-0.95156 0.99959 0.00003 1.8454 0.33644 2.5375 1.0092 0.71124 0.67286 1.0669 1.4514 1.0669 2.3357-0.00003 0.34605-0.06731 0.74974-0.20185 1.2111-0.11537 0.46139-0.25955 0.89392-0.43253 1.2976-0.15382 0.40371-0.33644 0.86508-0.54787 1.3841l-7.5548 18.743c-0.21148 0.53826-0.49022 1.2207-0.83622 2.0473-0.32682 0.82661-0.70168 1.5379-1.1246 2.1338-0.40371 0.5767-0.91314 1.0285-1.5283 1.3552-0.59595 0.3268-1.3264 0.4902-2.1915 0.4902-1.115 0-2.0089-0.2499-2.6817-0.74971-0.65361-0.51904-1.1438-1.0765-1.4706-1.6724-0.30759-0.61515-0.83623-1.8166-1.5859-3.6044l-7.4972-18.541c-0.17301-0.46134-0.35564-0.9227-0.54787-1.3841-0.17301-0.46134-0.3268-0.93231-0.46136-1.4129-0.11534-0.48056-0.17301-0.89387-0.17301-1.2399-0.000002-0.53823 0.1634-1.0669 0.4902-1.5859 0.3268-0.53823 0.77855-0.97075 1.3553-1.2976 0.5767-0.346 1.2015-0.51901 1.8743-0.51904 1.3072 0.00003 2.2011 0.37489 2.6817 1.1246 0.4998 0.74974 1.0477 2.0089 1.6436 3.7774"/>
        <path id="path5197" d="m-4.5021 823.74v22.751c-0.000012 1.5763-0.37487 2.7682-1.1246 3.5756-0.74973 0.80739-1.7013 1.2111-2.8547 1.2111s-2.0954-0.4133-2.8259-1.2399c-0.71127-0.82661-1.0669-2.0088-1.0669-3.5467v-22.52c-0.000004-1.5571 0.35563-2.7297 1.0669-3.5179 0.73049-0.78814 1.6724-1.1822 2.8259-1.1822 1.1534 0.00003 2.105 0.39411 2.8547 1.1822 0.7497 0.78819 1.1246 1.8839 1.1246 3.2872m-3.8928-8.1315c-1.0957 0.00004-2.0377-0.33637-2.8259-1.0092-0.76894-0.67278-1.1534-1.6244-1.1534-2.8547-0.000004-1.1149 0.39408-2.028 1.1822-2.7394 0.80738-0.73045 1.7397-1.0957 2.797-1.0957 1.0188 0.00005 1.9223 0.32685 2.7105 0.9804 0.78815 0.65364 1.1822 1.6052 1.1822 2.8547-0.000012 1.2111-0.38448 2.1627-1.1534 2.8547-0.76895 0.67286-1.6821 1.0093-2.7393 1.0092"/>
        <path id="path5199" d="m32.609 825.04v22.866c-0.000033 2.6144-0.27877 4.8635-0.83622 6.7474-0.55751 1.8839-1.4514 3.441-2.6817 4.6713s-2.8451 2.1434-4.8443 2.7394c-1.98 0.59591-4.4503 0.89388-7.4107 0.89389-2.7105-0.00001-5.1327-0.38448-7.2665-1.1534-2.1338-0.74973-3.7774-1.7301-4.9308-2.9412-1.1534-1.1919-1.7301-2.4222-1.7301-3.6909-0.0000034-0.96118 0.3268-1.7493 0.9804-2.3645 0.65359-0.59593 1.4418-0.89389 2.3645-0.89389 1.1534 0 2.1626 0.50942 3.0277 1.5283 0.42291 0.51903 0.85544 1.0381 1.2976 1.5571 0.46135 0.53825 0.96116 0.99001 1.4994 1.3553 0.55747 0.38446 1.2207 0.6632 1.9896 0.83622 0.76892 0.19223 1.6532 0.28835 2.6528 0.28835 2.0377 0 3.614-0.28836 4.729-0.86506 1.1342-0.55748 1.9223-1.3456 2.3645-2.3645 0.46134-1.0188 0.73047-2.1146 0.80739-3.2872 0.07687-1.1534 0.13454-3.0181 0.17301-5.594-1.2111 1.6917-2.6144 2.9796-4.2099 3.8639-1.5763 0.88428-3.4602 1.3264-5.6517 1.3264-2.6336 0-4.9404-0.67282-6.9205-2.0185-1.9608-1.3456-3.4698-3.2296-4.5271-5.6517-1.0573-2.4222-1.5859-5.2192-1.5859-8.3911-0.0000023-2.3645 0.31719-4.4983 0.95156-6.4014 0.6536-1.9031 1.5763-3.5083 2.7682-4.8155 1.1918-1.3072 2.5663-2.2876 4.1234-2.9412 1.5571-0.67279 3.268-1.0092 5.1327-1.0092 2.2299 0.00003 4.1619 0.43256 5.7959 1.2976 1.634 0.84586 3.1526 2.1819 4.556 4.0081v-1.0669c-0.000026-1.3648 0.33638-2.4221 1.0092-3.1719 0.6728-0.74969 1.5379-1.1246 2.5952-1.1246 1.5186 0.00003 2.5279 0.49984 3.0277 1.4994 0.49978 0.98043 0.74968 2.403 0.74972 4.2676m-22.809 9.977c-0.0000102 3.1911 0.69203 5.6036 2.0761 7.2376 1.4033 1.634 3.2103 2.451 5.421 2.451 1.3072 0 2.5375-0.34602 3.6909-1.0381 1.1726-0.71126 2.1242-1.7686 2.8547-3.1719 0.73047-1.4225 1.0957-3.143 1.0957-5.1615-0.000025-3.2103-0.71129-5.7094-2.1338-7.4972-1.4033-1.7878-3.2584-2.6816-5.5652-2.6817-2.2492 0.00003-4.0562 0.85547-5.421 2.5663-1.3457 1.7109-2.0185 4.1427-2.0185 7.2953"/>
        <path id="path5201" d="m58.964 846.84c-1.9031 1.4802-3.7486 2.5952-5.5364 3.3449-1.7686 0.7305-3.7582 1.0957-5.9689 1.0957-2.0185 0-3.7966-0.39408-5.3345-1.1822-1.5187-0.80739-2.6913-1.8935-3.5179-3.2584-0.82661-1.3649-1.2399-2.8451-1.2399-4.4406-0.000003-2.153 0.68243-3.9889 2.0473-5.5075s3.2392-2.5375 5.6229-3.0565c0.4998-0.11532 1.7397-0.37484 3.7197-0.77855 1.98-0.40368 3.6717-0.76892 5.075-1.0957 1.4225-0.346 2.9604-0.75931 4.6136-1.2399-0.09614-2.0761-0.51906-3.5948-1.2688-4.556-0.73051-0.98037-2.2588-1.4706-4.5848-1.4706-1.9993 0.00002-3.5083 0.27876-4.5271 0.83622-0.99963 0.55751-1.8647 1.3937-2.5952 2.5087-0.71128 1.115-1.2207 1.8551-1.5283 2.2203-0.28836 0.34604-0.92274 0.51905-1.9031 0.51903-0.88429 0.00002-1.6532-0.27872-2.3068-0.83622-0.63438-0.57668-0.95157-1.3072-0.95156-2.1915-0.000004-1.3841 0.4902-2.7297 1.4706-4.0369 0.98039-1.3072 2.5087-2.3837 4.5848-3.2296 2.0761-0.8458 4.6617-1.2687 7.7567-1.2688 3.4602 0.00003 6.1803 0.41334 8.1604 1.2399 1.98 0.80741 3.3737 2.0954 4.1811 3.8639 0.82658 1.7686 1.2399 4.1138 1.2399 7.0358-0.000031 1.8455-0.0096 3.4122-0.02884 4.7001-0.000032 1.288-0.0096 2.7201-0.02884 4.2965-0.000031 1.4802 0.24026 3.0277 0.72088 4.6425 0.49978 1.5956 0.74968 2.624 0.74972 3.0854-0.000033 0.80739-0.3845 1.5475-1.1534 2.2203-0.74975 0.65359-1.6052 0.98039-2.5663 0.98039-0.80742 0-1.6052-0.37485-2.3933-1.1246-0.78819-0.76894-1.6244-1.8743-2.5087-3.316m-0.51903-11.39c-1.1534 0.42294-2.8355 0.87469-5.0462 1.3553-2.1915 0.46138-3.7102 0.8074-4.556 1.0381-0.84585 0.21147-1.6532 0.644-2.4222 1.2976-0.76895 0.63438-1.1534 1.5283-1.1534 2.6817-0.00001 1.1919 0.45174 2.2107 1.3553 3.0565 0.90349 0.82661 2.0857 1.2399 3.5467 1.2399 1.5571 0 2.9892-0.33641 4.2965-1.0092 1.3264-0.69204 2.2972-1.5763 2.9124-2.6528 0.71125-1.1918 1.0669-3.1526 1.0669-5.8824v-1.1246"/>
        <path id="path5203" d="m73.065 819.96h0.86506v-4.729c-0.000006-1.2687 0.02883-2.2587 0.08651-2.97 0.07689-0.73046 0.26912-1.3552 0.5767-1.8743 0.30757-0.53821 0.74971-0.97074 1.3264-1.2976 0.5767-0.34598 1.2207-0.51899 1.932-0.51904 0.99961 0.00005 1.9031 0.3749 2.7105 1.1246 0.53824 0.49985 0.87466 1.115 1.0092 1.8454 0.15378 0.71131 0.23067 1.7302 0.23068 3.0565v5.3634h2.8835c1.1149 0.00003 1.9608 0.26916 2.5375 0.80738 0.59591 0.51907 0.89387 1.1919 0.89389 2.0185-0.00002 1.0573-0.42294 1.7974-1.2688 2.2203-0.82663 0.42295-2.0185 0.63441-3.5756 0.63438h-1.4706v14.475c-0.000013 1.2303 0.03843 2.1819 0.11534 2.8547 0.0961 0.65361 0.32679 1.1919 0.69205 1.6148 0.38446 0.4037 0.99961 0.60554 1.8455 0.60554 0.46135 0 1.0861-0.0769 1.8743-0.23068 0.78814-0.17301 1.4033-0.25952 1.8455-0.25952 0.63436 0 1.2014 0.25952 1.7013 0.77855 0.51901 0.49982 0.77853 1.1246 0.77855 1.8743-0.000022 1.2688-0.69207 2.2395-2.0761 2.9124-1.3841 0.67282-3.3737 1.0092-5.9689 1.0092-2.4606 0-4.3253-0.4133-5.594-1.2399-1.2688-0.82661-2.105-1.9704-2.5087-3.4314-0.38448-1.461-0.57671-3.4122-0.5767-5.8536v-15.11h-1.0381c-1.1342 0.00003-1.9992-0.2691-2.5952-0.80739-0.59593-0.53823-0.89389-1.2207-0.89389-2.0473-0.000001-0.82658 0.30758-1.4994 0.92273-2.0185 0.63437-0.53822 1.5475-0.80735 2.7393-0.80738"/>
        <path id="path5205" d="m101.38 823.74v22.751c-0.00001 1.5763-0.37487 2.7682-1.1246 3.5756-0.74973 0.80739-1.7013 1.2111-2.8547 1.2111s-2.0954-0.4133-2.8259-1.2399c-0.71127-0.82661-1.0669-2.0088-1.0669-3.5467v-22.52c-0.000004-1.5571 0.35563-2.7297 1.0669-3.5179 0.73049-0.78814 1.6724-1.1822 2.8259-1.1822 1.1534 0.00003 2.105 0.39411 2.8547 1.1822 0.7497 0.78819 1.1246 1.8839 1.1246 3.2872m-3.8928-8.1315c-1.0957 0.00004-2.0377-0.33637-2.8259-1.0092-0.76894-0.67278-1.1534-1.6244-1.1534-2.8547-0.000004-1.1149 0.39408-2.028 1.1822-2.7394 0.80738-0.73045 1.7397-1.0957 2.797-1.0957 1.0188 0.00005 1.9223 0.32685 2.7105 0.9804 0.78815 0.65364 1.1822 1.6052 1.1822 2.8547-0.00001 1.2111-0.38448 2.1627-1.1534 2.8547-0.76895 0.67286-1.6821 1.0093-2.7393 1.0092"/>
        <path id="path5207" d="m139.01 835.27c-0.00004 2.3453-0.36528 4.5079-1.0957 6.4879-0.73053 1.98-1.7878 3.6813-3.1719 5.1038s-3.0373 2.5183-4.9597 3.2872c-1.9224 0.74972-4.085 1.1246-6.4879 1.1246-2.3837 0-4.5272-0.38447-6.4303-1.1534s-3.5564-1.8647-4.9597-3.2872c-1.3841-1.4418-2.4414-3.1334-3.1719-5.075-0.71127-1.9608-1.0669-4.1234-1.0669-6.4879 0-2.3837 0.36525-4.5656 1.0957-6.5456 0.73049-1.98 1.7782-3.6717 3.143-5.075 1.3649-1.4033 3.0181-2.4798 4.9597-3.2296 1.9416-0.76891 4.085-1.1534 6.4303-1.1534 2.3837 0.00003 4.5463 0.3845 6.4879 1.1534 1.9416 0.76897 3.6044 1.8647 4.9885 3.2872 1.3841 1.4226 2.4317 3.1142 3.143 5.075 0.73046 1.9608 1.0957 4.1235 1.0957 6.4879m-7.9009 0c-0.00003-3.2103-0.71129-5.7094-2.1338-7.4972-1.4033-1.7878-3.2968-2.6816-5.6805-2.6817-1.5379 0.00003-2.8932 0.40372-4.0658 1.2111-1.1726 0.78819-2.0762 1.9608-2.7105 3.5179-0.63438 1.5571-0.95157 3.3737-0.95156 5.4499-0.00001 2.0569 0.30757 3.8543 0.92273 5.3922 0.63436 1.5379 1.5283 2.7201 2.6817 3.5467 1.1726 0.80739 2.5471 1.2111 4.1234 1.2111 2.3837 0 4.2772-0.89389 5.6805-2.6817 1.4225-1.807 2.1338-4.2964 2.1338-7.4683"/>
        <path id="path5209" d="m152.45 823.62v0.95157c1.3841-1.8262 2.8931-3.1622 4.5271-4.0081 1.6532-0.86503 3.5467-1.2976 5.6805-1.2976 2.0761 0.00003 3.9312 0.45178 5.5652 1.3553 1.634 0.90353 2.8547 2.1819 3.6621 3.8351 0.519 0.9612 0.85541 1.9993 1.0092 3.1142 0.15376 1.115 0.23065 2.5375 0.23068 4.2676v14.648c-0.00003 1.5763-0.36527 2.7682-1.0957 3.5756-0.7113 0.80739-1.6436 1.2111-2.797 1.2111-1.1727 0-2.1242-0.4133-2.8547-1.2399-0.73052-0.82661-1.0958-2.0088-1.0957-3.5467v-13.12c-0.00003-2.5952-0.36527-4.5752-1.0957-5.9401-0.71129-1.3841-2.1434-2.0761-4.2964-2.0761-1.4033 0.00002-2.6817 0.42294-3.8351 1.2688-1.1534 0.82663-1.9993 1.9704-2.5375 3.4314-0.38448 1.1727-0.57672 3.3641-0.57671 6.5744v9.8616c-0.00001 1.5956-0.37487 2.797-1.1246 3.6044-0.73051 0.78816-1.6821 1.1822-2.8547 1.1822-1.1342 0-2.0665-0.4133-2.797-1.2399-0.7305-0.82661-1.0957-2.0088-1.0957-3.5467v-22.751c0-1.4994 0.3268-2.6144 0.9804-3.3449 0.65359-0.74969 1.5475-1.1246 2.6817-1.1246 0.69203 0.00003 1.3168 0.16343 1.8743 0.4902 0.55747 0.32683 0.99961 0.81703 1.3264 1.4706 0.34601 0.65363 0.51902 1.4514 0.51903 2.3933"/>
      </g>
      <rect id="rect5211" opacity=".63556" height="21.372" width="300.4" y="854.08" x="-127.05" fill="url(#linearGradient5284)"/>
      <rect id="rect5213" opacity=".63556" height="21.372" width="300.4" y="886.13" x="-127.05" fill="url(#linearGradient5286)"/>
    </g>
  </g>
  <metadata>
    <rdf:RDF>
      <cc:Work>
        <dc:format>image/svg+xml</dc:format>
        <dc:type rdf:resource="http://purl.org/dc/dcmitype/StillImage"/>
        <cc:license rdf:resource="http://creativecommons.org/licenses/publicdomain/"/>
        <dc:publisher>
          <cc:Agent rdf:about="http://openclipart.org/">
            <dc:title>Openclipart</dc:title>
          </cc:Agent>
        </dc:publisher>
      </cc:Work>
      <cc:License rdf:about="http://creativecommons.org/licenses/publicdomain/">
        <cc:permits rdf:resource="http://creativecommons.org/ns#Reproduction"/>
        <cc:permits rdf:resource="http://creativecommons.org/ns#Distribution"/>
        <cc:permits rdf:resource="http://creativecommons.org/ns#DerivativeWorks"/>
      </cc:License>
    </rdf:RDF>
  </metadata>
</svg>
